<svg width="21" height="20" fill="none" xmlns="http://www.w3.org/2000/svg"><path d="M4 6.716v1.628c0 .047.02.09.053.122l6.538 6.09a.17.17 0 0 0 .234-.003l6.126-6.088A.166.166 0 0 0 17 8.348V6.736a.168.168 0 0 0-.286-.118l-4.88 4.848a.168.168 0 0 1-.286-.118V3.167A.167.167 0 0 0 11.381 3h-1.342a.167.167 0 0 0-.168.167v8.2a.168.168 0 0 1-.282.123L4.282 6.593A.168.168 0 0 0 4 6.716Z" fill="#0086D9"/><path d="M4 17.833v-4.666c0-.092.075-.167.168-.167h1.109c.092 0 .167.075.167.167v3c0 .092.076.166.168.166h9.776a.167.167 0 0 0 .168-.166v-3c0-.092.075-.167.167-.167h1.11c.092 0 .167.075.167.167v4.666a.167.167 0 0 1-.168.167H4.168A.167.167 0 0 1 4 17.833Z" fill="#0086D9"/><path d="M4 6.716v1.628c0 .047.02.09.053.122l6.538 6.09a.17.17 0 0 0 .234-.003l6.126-6.088A.166.166 0 0 0 17 8.348V6.736a.168.168 0 0 0-.286-.118l-4.88 4.848a.168.168 0 0 1-.286-.118V3.167A.167.167 0 0 0 11.381 3h-1.342a.167.167 0 0 0-.168.167v8.2a.168.168 0 0 1-.282.123L4.282 6.593A.168.168 0 0 0 4 6.716Z" stroke="#0086D9" stroke-width=".168"/><path d="M4 17.833v-4.666c0-.092.075-.167.168-.167h1.109c.092 0 .167.075.167.167v3c0 .092.076.166.168.166h9.776a.167.167 0 0 0 .168-.166v-3c0-.092.075-.167.167-.167h1.11c.092 0 .167.075.167.167v4.666a.167.167 0 0 1-.168.167H4.168A.167.167 0 0 1 4 17.833Z" stroke="#0086D9" stroke-width=".168"/></svg>