<svg width="20" height="20" fill="none" xmlns="http://www.w3.org/2000/svg"><path d="M9.166 1.72a7.44 7.44 0 0 1 7.45 7.45c0 1.61-.51 3.096-1.377 4.321l-.025.034.03.03 2.684 2.683a1.202 1.202 0 0 1-.39 1.956 1.202 1.202 0 0 1-1.306-.26l-2.684-2.683-.029.028-.031-.037a7.45 7.45 0 0 1-4.322 1.378 7.44 7.44 0 0 1-7.45-7.45 7.44 7.44 0 0 1 7.45-7.45Zm.005 1.563A5.89 5.89 0 0 0 3.29 9.167a5.89 5.89 0 0 0 5.88 5.883 5.89 5.89 0 0 0 5.884-5.883A5.89 5.89 0 0 0 9.17 3.283Z" fill="#B8B9BD" stroke="#B8B9BD" stroke-width=".1"/></svg>