<svg width="18" height="18" fill="none" xmlns="http://www.w3.org/2000/svg"><path d="m12.49 15.629-9.261-.117h-.001a.702.702 0 0 1-.273-.061.8.8 0 0 1-.407-.405.703.703 0 0 1-.061-.275l-.114-9.317.011-.07a.166.166 0 0 1 .037-.06L3.53 4.219c.064-.065.155-.061.222-.026a.23.23 0 0 1 .125.197l.108 8.47 6.999-7c.078-.078.204-.059.281.018l.858.857c.077.077.096.204.018.282l-6.999 7 8.467.107c.09 0 .162.057.197.125.035.067.04.159-.025.223l-1.072 1.072a.301.301 0 0 1-.217.086h-.001Z" fill="#0086D9" stroke="#0086D9" stroke-width=".1"/></svg>