<svg width="26" height="30" fill="none" xmlns="http://www.w3.org/2000/svg"><g clip-path="url(#a)"><path d="M25.23 7.951v14.097a.296.296 0 0 1-.148.258L12.877 29.33a.297.297 0 0 1-.298 0L.372 22.305a.296.296 0 0 1-.148-.258V7.95a.296.296 0 0 1 .148-.258L12.58.67a.298.298 0 0 1 .298 0l12.205 7.023a.296.296 0 0 1 .149.258ZM7.335 4.398a.064.064 0 0 0 0 .11l5.36 3.072a.064.064 0 0 0 .062 0l5.368-3.07a.065.065 0 0 0 .031-.056.064.064 0 0 0-.03-.055l-5.362-3.092a.064.064 0 0 0-.066 0l-5.363 3.09ZM.85 8.128a.055.055 0 0 0-.028.048l-.004 6.19a.054.054 0 0 0 .028.048.054.054 0 0 0 .055 0l5.398-3.096a.055.055 0 0 0 .027-.047V5.067a.055.055 0 0 0-.055-.055.05.05 0 0 0-.027.008L.85 8.129Zm11.498-.04L7.037 5.044c-.052-.03-.077-.015-.076.045.015 1.953.005 3.927-.03 5.92-.005.194.086.344.27.45 1.702.98 3.409 1.962 5.122 2.946a.073.073 0 0 0 .071 0 .07.07 0 0 0 .035-.06V8.227a.15.15 0 0 0-.08-.139Zm.677 6.28a.06.06 0 0 0 .06.06.06.06 0 0 0 .03-.008l5.385-3.093a.061.061 0 0 0 .032-.053v-6.19a.06.06 0 0 0-.06-.06.055.055 0 0 0-.03.007l-5.385 3.09a.06.06 0 0 0-.031.053v6.194Zm11.61-6.19a.065.065 0 0 0-.034-.057L19.227 5.03a.065.065 0 0 0-.066 0 .066.066 0 0 0-.033.057v6.177a.065.065 0 0 0 .033.057l5.374 3.089c.01.005.022.008.033.009a.066.066 0 0 0 .057-.033.065.065 0 0 0 .01-.033V8.178Zm-12.61 6.871a.06.06 0 0 0 0-.106l-5.383-3.085a.06.06 0 0 0-.059.002L1.22 14.945a.061.061 0 0 0-.03.053.06.06 0 0 0 .032.053l5.372 3.09a.061.061 0 0 0 .063 0l5.368-3.092Zm12.215-.002a.064.064 0 0 0 .03-.053.062.062 0 0 0-.03-.053l-5.38-3.087a.063.063 0 0 0-.062 0l-5.361 3.093a.062.062 0 0 0 0 .106l5.368 3.09a.062.062 0 0 0 .063 0l5.372-3.096ZM6.326 18.735a.064.064 0 0 0-.033-.055L.916 15.589a.064.064 0 0 0-.065.001.064.064 0 0 0-.03.056v6.166a.064.064 0 0 0 .032.055l5.378 3.093a.065.065 0 0 0 .087-.025.064.064 0 0 0 .008-.032v-6.168Zm.676-.087a.063.063 0 0 0-.031.055l-.013 6.182a.063.063 0 0 0 .093.055l5.347-3.07a.063.063 0 0 0 .031-.056v-6.18a.063.063 0 0 0-.03-.054.063.063 0 0 0-.064 0l-5.333 3.068Zm11.53.088a.079.079 0 0 0-.04-.067l-5.349-3.08a.08.08 0 0 0-.107.029.08.08 0 0 0-.01.039v6.148a.079.079 0 0 0 .04.068l5.348 3.076a.08.08 0 0 0 .078 0 .078.078 0 0 0 .04-.068v-6.145Zm6.084 3.128a.064.064 0 0 0 .033-.055l-.022-6.169a.064.064 0 0 0-.032-.054.064.064 0 0 0-.063 0l-5.373 3.094a.065.065 0 0 0-.03.055v6.174a.063.063 0 0 0 .03.055.065.065 0 0 0 .065.001l5.392-3.101Zm-6.51 3.612-5.279-3.029a.18.18 0 0 0-.19 0l-5.264 3.018a.088.088 0 0 0 0 .152l5.254 3.03c.07.04.14.04.21 0 1.733-1.005 3.474-2.01 5.221-3.016.055-.031.074-.08.055-.148a.011.011 0 0 0-.007-.007Z" fill="#0086D9"/><mask id="b" style="mask-type:luminance" maskUnits="userSpaceOnUse" x="-1" y="0" width="27" height="30"><path d="M25.731.135H-.277v29.73h26.008V.134Z" fill="#fff"/><path d="M25.23 7.951V22.05a.296.296 0 0 1-.148.258L12.877 29.33a.297.297 0 0 1-.298 0L.372 22.304a.298.298 0 0 1-.148-.258V7.95a.296.296 0 0 1 .148-.258L12.58.67a.298.298 0 0 1 .298 0l12.205 7.023a.296.296 0 0 1 .149.258ZM7.335 4.398a.064.064 0 0 0 0 .11l5.36 3.072a.064.064 0 0 0 .062 0l5.368-3.07a.065.065 0 0 0 .031-.056.064.064 0 0 0-.03-.055l-5.362-3.092a.064.064 0 0 0-.066 0l-5.363 3.09ZM.85 8.128a.055.055 0 0 0-.028.048l-.004 6.19a.055.055 0 0 0 .083.048l5.398-3.096a.055.055 0 0 0 .027-.047V5.067a.055.055 0 0 0-.055-.055.05.05 0 0 0-.027.008L.85 8.129Zm11.498-.04L7.037 5.044c-.052-.03-.077-.014-.076.045a234.1 234.1 0 0 1-.03 5.92c-.005.194.086.344.27.45 1.702.98 3.409 1.962 5.122 2.946a.074.074 0 0 0 .071 0 .069.069 0 0 0 .035-.06V8.228a.15.15 0 0 0-.08-.14Zm.677 6.28a.06.06 0 0 0 .06.06.061.061 0 0 0 .03-.008l5.385-3.093a.06.06 0 0 0 .032-.053v-6.19a.06.06 0 0 0-.06-.06c-.01 0-.02.002-.03.007l-5.385 3.09a.06.06 0 0 0-.031.053v6.195Zm11.61-6.19a.065.065 0 0 0-.034-.057L19.227 5.03a.065.065 0 0 0-.066 0 .066.066 0 0 0-.033.057v6.177a.065.065 0 0 0 .033.057l5.374 3.089a.067.067 0 0 0 .066 0 .067.067 0 0 0 .033-.057V8.178Zm-12.61 6.871a.061.061 0 0 0 .032-.053.06.06 0 0 0-.032-.053l-5.383-3.085a.06.06 0 0 0-.059.002L1.22 14.945a.06.06 0 0 0-.03.054.06.06 0 0 0 .032.052l5.372 3.09a.061.061 0 0 0 .063 0l5.368-3.092Zm12.215-.002a.062.062 0 0 0 .022-.083.063.063 0 0 0-.022-.023l-5.38-3.087a.063.063 0 0 0-.062 0l-5.361 3.093a.062.062 0 0 0 0 .106l5.368 3.09a.063.063 0 0 0 .063 0l5.372-3.096ZM6.326 18.735a.064.064 0 0 0-.033-.055L.916 15.59a.064.064 0 0 0-.065 0 .064.064 0 0 0-.031.056v6.166a.064.064 0 0 0 .033.055l5.378 3.093a.064.064 0 0 0 .064-.001.064.064 0 0 0 .031-.056v-6.168Zm.676-.086a.062.062 0 0 0-.031.054l-.013 6.182a.063.063 0 0 0 .093.055l5.347-3.07a.064.064 0 0 0 .023-.024.064.064 0 0 0 .008-.032v-6.18a.062.062 0 0 0-.094-.054l-5.333 3.069Zm11.53.087a.079.079 0 0 0-.04-.067l-5.349-3.08a.079.079 0 0 0-.118.068v6.148a.079.079 0 0 0 .04.068l5.35 3.076a.08.08 0 0 0 .117-.068v-6.145Zm6.084 3.128a.065.065 0 0 0 .033-.055l-.022-6.169a.063.063 0 0 0-.032-.054.065.065 0 0 0-.063 0l-5.373 3.094a.064.064 0 0 0-.03.055v6.174a.063.063 0 0 0 .03.055c.01.006.021.01.033.01a.065.065 0 0 0 .032-.009l5.392-3.101Zm-6.51 3.612-5.279-3.029a.18.18 0 0 0-.19 0l-5.264 3.018a.089.089 0 0 0-.044.076.088.088 0 0 0 .044.076l5.254 3.03c.07.04.14.04.21 0 1.733-1.005 3.474-2.01 5.221-3.016.055-.031.074-.08.055-.148a.01.01 0 0 0-.003-.004.01.01 0 0 0-.004-.003Z" fill="#000"/></mask><g mask="url(#b)"><path d="M25.23 7.951v14.097a.296.296 0 0 1-.148.258L12.877 29.33a.297.297 0 0 1-.298 0L.372 22.305a.296.296 0 0 1-.148-.258V7.95a.296.296 0 0 1 .148-.258L12.58.67a.298.298 0 0 1 .298 0l12.205 7.023a.296.296 0 0 1 .149.258ZM7.335 4.398a.064.064 0 0 0 0 .11l5.36 3.072a.064.064 0 0 0 .062 0l5.368-3.07a.065.065 0 0 0 .031-.056.064.064 0 0 0-.03-.055l-5.362-3.092a.064.064 0 0 0-.066 0l-5.363 3.09ZM.85 8.128a.055.055 0 0 0-.028.048l-.004 6.19a.054.054 0 0 0 .028.048.054.054 0 0 0 .055 0l5.398-3.096a.055.055 0 0 0 .027-.047V5.067a.055.055 0 0 0-.055-.055.05.05 0 0 0-.027.008L.85 8.129Zm11.498-.04L7.037 5.044c-.052-.03-.077-.015-.076.045.015 1.953.005 3.927-.03 5.92-.005.194.086.344.27.45 1.702.98 3.409 1.962 5.122 2.946a.073.073 0 0 0 .071 0 .07.07 0 0 0 .035-.06V8.227a.15.15 0 0 0-.08-.139Zm.677 6.28a.06.06 0 0 0 .06.06.06.06 0 0 0 .03-.008l5.385-3.093a.061.061 0 0 0 .032-.053v-6.19a.06.06 0 0 0-.06-.06.055.055 0 0 0-.03.007l-5.385 3.09a.06.06 0 0 0-.031.053v6.194Zm11.61-6.19a.065.065 0 0 0-.034-.057L19.227 5.03a.065.065 0 0 0-.066 0 .066.066 0 0 0-.033.057v6.177a.065.065 0 0 0 .033.057l5.374 3.089c.01.005.022.008.033.009a.066.066 0 0 0 .057-.033.065.065 0 0 0 .01-.033V8.178Zm-12.61 6.871a.06.06 0 0 0 0-.106l-5.383-3.085a.06.06 0 0 0-.059.002L1.22 14.945a.061.061 0 0 0-.03.053.06.06 0 0 0 .032.053l5.372 3.09a.061.061 0 0 0 .063 0l5.368-3.092Zm12.215-.002a.064.064 0 0 0 .03-.053.062.062 0 0 0-.03-.053l-5.38-3.087a.063.063 0 0 0-.062 0l-5.361 3.093a.062.062 0 0 0 0 .106l5.368 3.09a.062.062 0 0 0 .063 0l5.372-3.096ZM6.326 18.735a.064.064 0 0 0-.033-.055L.916 15.589a.064.064 0 0 0-.065.001.064.064 0 0 0-.03.056v6.166a.064.064 0 0 0 .032.055l5.378 3.093a.065.065 0 0 0 .087-.025.064.064 0 0 0 .008-.032v-6.168Zm.676-.087a.063.063 0 0 0-.031.055l-.013 6.182a.063.063 0 0 0 .093.055l5.347-3.07a.063.063 0 0 0 .031-.056v-6.18a.062.062 0 0 0-.03-.054.063.063 0 0 0-.064 0l-5.333 3.068Zm11.53.088a.079.079 0 0 0-.04-.067l-5.349-3.08a.08.08 0 0 0-.107.029.08.08 0 0 0-.01.039v6.148a.079.079 0 0 0 .04.068l5.348 3.076a.08.08 0 0 0 .078 0 .078.078 0 0 0 .04-.068v-6.145Zm6.084 3.128a.064.064 0 0 0 .033-.055l-.022-6.169a.064.064 0 0 0-.032-.054.064.064 0 0 0-.063 0l-5.373 3.094a.064.064 0 0 0-.03.055v6.174a.063.063 0 0 0 .03.055.065.065 0 0 0 .065.001l5.392-3.101Zm-6.51 3.612-5.279-3.029a.18.18 0 0 0-.19 0l-5.264 3.018a.088.088 0 0 0 0 .152l5.254 3.03c.07.04.14.04.21 0 1.733-1.005 3.474-2.01 5.221-3.016.055-.031.074-.08.055-.148a.011.011 0 0 0-.007-.007Z" stroke="#0086D9" stroke-width="1.4"/></g></g><defs><clipPath id="a"><path fill="#fff" d="M0 0h26v30H0z"/></clipPath></defs></svg>